<?xml version="1.0" encoding="UTF-8" standalone="no"?>
<svg width="349px" height="189px" viewBox="0 0 349 189" version="1.1" xmlns="http://www.w3.org/2000/svg" xmlns:xlink="http://www.w3.org/1999/xlink">
    <!-- Generator: Sketch 3.7.1 (28215) - http://www.bohemiancoding.com/sketch -->
    <title>Group 5</title>
    <desc>Created with Sketch.</desc>
    <defs></defs>
    <g id="Page-1" stroke="none" stroke-width="1" fill="none" fill-rule="evenodd">
        <g id="Artboard-1" transform="translate(-526.000000, 0.000000)">
            <g id="Group-5" transform="translate(526.000000, -37.000000)">
                <g id="Group-2" transform="translate(0.000000, 145.000000)" font-size="65.9149035" font-family="Bitter-Bold, Bitter" fill="#FFFFFF" font-weight="bold">
                    <g id="Group">
                        <text id="Writegood">
                            <tspan x="0.067484306" y="64">Writegood</tspan>
                        </text>
                    </g>
                </g>
                <g id="Group-4" transform="translate(131.000000, 0.000000)">
                    <path d="M8.50488281,-1.11022302e-15 L0,55.1144657 C0,55.1144657 36.1112061,87.4780273 36.1112061,131.903809 L41.8406143,131.903809 L41.8406143,-1.11022302e-15 L8.50488281,-1.11022302e-15 Z" id="Path-1-Copy-2" fill="#F2F2F2"></path>
                    <path d="M48.449707,-1.11022302e-15 L37.9448242,55.1144657 C37.9448242,55.1144657 76.0869522,87.6072998 76.0869522,132.033081 C76.0869522,132.033087 81.7854385,132.033081 81.7854385,132.033081 L85.8406143,-1.11022302e-15 L48.449707,-1.11022302e-15 Z" id="Path-1-Copy-3" fill="#F2F2F2" transform="translate(61.892719, 66.016542) scale(-1, 1) translate(-61.892719, -66.016542) "></path>
                    <ellipse id="Oval-1-Copy" fill="#818480" cx="42" cy="58" rx="13" ry="13"></ellipse>
                    <rect id="Rectangle-7-Copy" fill="#818482" x="40" y="55" width="4" height="90"></rect>
                    <circle id="Oval-2-Copy-3" fill="#F2F2F2" cx="47" cy="54" r="2"></circle>
                    <circle id="Oval-2-Copy-4" fill="#F2F2F2" cx="37" cy="54" r="2"></circle>
                    <path d="M36,60 C36,60 36.9897286,64.5475044 42.2321489,64.5475044 C47.4745692,64.5475044 48.0458984,60 48.0458984,60" id="Path-3-Copy" stroke="#F2F2F2" stroke-width="3"></path>
                </g>
            </g>
        </g>
    </g>
</svg>